<?xml version="1.0" encoding="UTF-8" standalone="no"?><!DOCTYPE svg PUBLIC "-//W3C//DTD SVG 1.1//EN" "http://www.w3.org/Graphics/SVG/1.1/DTD/svg11.dtd"><svg width="100%" height="100%" viewBox="0 0 115 98" version="1.1" xmlns="http://www.w3.org/2000/svg" xmlns:xlink="http://www.w3.org/1999/xlink" xml:space="preserve" xmlns:serif="http://www.serif.com/" style="fill-rule:evenodd;clip-rule:evenodd;stroke-linejoin:round;stroke-miterlimit:2;"><path id="New-Logo-2" serif:id="New Logo 2" d="M70.961,64.14l-12.063,0l-0,33.248l-19.683,-0l0,-97.388l34.729,0c7.408,0 13.601,1.385 18.626,3.933c5.515,2.796 9.635,6.73 12.432,11.727c2.671,4.774 4.077,10.309 4.077,16.641c-0,6.455 -1.429,12.008 -4.11,16.7c-2.823,4.94 -6.969,8.783 -12.51,11.449c-0.215,0.103 -0.432,0.205 -0.651,0.304l22.339,36.634l-23.112,-0l-20.06,-33.228l-0.014,-0.02Zm-12.063,-19.278l15.046,0c3.95,0 7.195,-0.508 9.678,-1.819c1.921,-1.016 3.383,-2.32 4.267,-4.034c1.025,-1.987 1.507,-4.188 1.507,-6.592c-0,-2.55 -0.496,-4.886 -1.55,-6.994c-0.901,-1.803 -2.382,-3.193 -4.341,-4.273c-2.452,-1.351 -5.66,-1.872 -9.561,-1.872l-15.046,0l-0,25.584Z" style="fill:#ed1c2d;"/><path id="New-Logo-21" serif:id="New Logo 2" d="M33.039,0l0,19.337l-22.686,0l-10.353,-19.337l33.039,0Zm0,25.513l0,19.337l-17.648,0l-10.353,-19.337l28.001,0Z" style="fill:#0082c4;"/></svg>